REM DIRINDEX 1\2,1\3,1\4,1\5,1\6
REM DIRNAME folder01,folder02,folder03,folder04,folder05,folder06
TITLE ""
FILE "Disc3Track53.mp3" MP3
  TRACK 01 AUDIO
    TITLE "3:cjc030_05681"
    INDEX 01 00:00:00
  TRACK 02 AUDIO
    TITLE "0:"
    INDEX 01 00:00:72
  TRACK 03 AUDIO
    TITLE "4:cjc030_05682"
    INDEX 01 00:01:07
  TRACK 04 AUDIO
    TITLE "0:"
    INDEX 01 00:05:14
  TRACK 05 AUDIO
    TITLE "5:cjc030_05683"
    INDEX 01 00:05:24
  TRACK 06 AUDIO
    TITLE "0:"
    INDEX 01 00:06:30
  TRACK 07 AUDIO
    TITLE "6:cjc030_05684"
    INDEX 01 00:06:41
  TRACK 08 AUDIO
    TITLE "0:"
    INDEX 01 00:08:21
  TRACK 09 AUDIO
    TITLE "6:cjc030_05685"
    INDEX 01 00:08:58
  TRACK 10 AUDIO
    TITLE "0:"
    INDEX 01 00:11:54
  TRACK 11 AUDIO
    TITLE "3:cjc030_05686"
    INDEX 01 00:12:30
  TRACK 12 AUDIO
    TITLE "0:"
    INDEX 01 00:13:37
  TRACK 13 AUDIO
    TITLE "4:cjc030_05687"
    INDEX 01 00:13:45
  TRACK 14 AUDIO
    TITLE "0:"
    INDEX 01 00:15:40
  TRACK 15 AUDIO
    TITLE "5:cjc030_05688"
    INDEX 01 00:15:48
  TRACK 16 AUDIO
    TITLE "0:"
    INDEX 01 00:16:57
  TRACK 17 AUDIO
    TITLE "6:cjc030_05689"
    INDEX 01 00:16:69
  TRACK 18 AUDIO
    TITLE "0:"
    INDEX 01 00:19:24
  TRACK 19 AUDIO
    TITLE "3:cjc030_05690"
    INDEX 01 00:19:71
  TRACK 20 AUDIO
    TITLE "0:"
    INDEX 01 00:21:00
  TRACK 21 AUDIO
    TITLE "4:cjc030_05691"
    INDEX 01 00:21:09
  TRACK 22 AUDIO
    TITLE "0:"
    INDEX 01 00:24:08
  TRACK 23 AUDIO
    TITLE "5:cjc030_05692"
    INDEX 01 00:24:18
  TRACK 24 AUDIO
    TITLE "0:"
    INDEX 01 00:25:21
  TRACK 25 AUDIO
    TITLE "6:cjc030_05693"
    INDEX 01 00:25:33
  TRACK 26 AUDIO
    TITLE "0:"
    INDEX 01 00:27:24
  TRACK 27 AUDIO
    TITLE "3:cjc030_05694"
    INDEX 01 00:27:71
  TRACK 28 AUDIO
    TITLE "0:"
    INDEX 01 00:29:05
  TRACK 29 AUDIO
    TITLE "4:cjc030_05695"
    INDEX 01 00:29:15
  TRACK 30 AUDIO
    TITLE "0:"
    INDEX 01 00:31:18
  TRACK 31 AUDIO
    TITLE "5:cjc030_05696"
    INDEX 01 00:31:27
  TRACK 32 AUDIO
    TITLE "0:"
    INDEX 01 00:32:37
  TRACK 33 AUDIO
    TITLE "6:cjc030_05697"
    INDEX 01 00:32:50
  TRACK 34 AUDIO
    TITLE "0:"
    INDEX 01 00:34:45
  TRACK 35 AUDIO
    TITLE "3:cjc030_05698"
    INDEX 01 00:35:17
  TRACK 36 AUDIO
    TITLE "0:"
    INDEX 01 00:36:31
  TRACK 37 AUDIO
    TITLE "4:cjc030_05699"
    INDEX 01 00:36:40
  TRACK 38 AUDIO
    TITLE "0:"
    INDEX 01 00:37:34
  TRACK 39 AUDIO
    TITLE "5:cjc030_05700"
    INDEX 01 00:37:42
  TRACK 40 AUDIO
    TITLE "0:"
    INDEX 01 00:38:59
  TRACK 41 AUDIO
    TITLE "3:cjc030_05701"
    INDEX 01 00:39:39
  TRACK 42 AUDIO
    TITLE "0:"
    INDEX 01 00:40:68
  TRACK 43 AUDIO
    TITLE "4:cjc030_05702"
    INDEX 01 00:41:02
  TRACK 44 AUDIO
    TITLE "0:"
    INDEX 01 00:42:37
  TRACK 45 AUDIO
    TITLE "5:cjc030_05703"
    INDEX 01 00:42:45
  TRACK 46 AUDIO
    TITLE "0:"
    INDEX 01 00:43:72
  TRACK 47 AUDIO
    TITLE "6:cjc030_05704"
    INDEX 01 00:44:11
  TRACK 48 AUDIO
    TITLE "0:"
    INDEX 01 00:50:54
  TRACK 49 AUDIO
    TITLE "3:cjc030_05705"
    INDEX 01 00:51:30
  TRACK 50 AUDIO
    TITLE "0:"
    INDEX 01 00:52:34
  TRACK 51 AUDIO
    TITLE "4:cjc030_05706"
    INDEX 01 00:52:43
  TRACK 52 AUDIO
    TITLE "0:"
    INDEX 01 00:53:45
  TRACK 53 AUDIO
    TITLE "5:cjc030_05707"
    INDEX 01 00:53:55
  TRACK 54 AUDIO
    TITLE "0:"
    INDEX 01 00:54:58
  TRACK 55 AUDIO
    TITLE "3:cjc030_05708"
    INDEX 01 00:55:42
  TRACK 56 AUDIO
    TITLE "0:"
    INDEX 01 00:56:61
  TRACK 57 AUDIO
    TITLE "4:cjc030_05709"
    INDEX 01 00:56:69
  TRACK 58 AUDIO
    TITLE "0:"
    INDEX 01 00:58:26
  TRACK 59 AUDIO
    TITLE "5:cjc030_05710"
    INDEX 01 00:58:36
  TRACK 60 AUDIO
    TITLE "0:"
    INDEX 01 00:59:55
  TRACK 61 AUDIO
    TITLE "3:cjc030_05711"
    INDEX 01 01:00:33
  TRACK 62 AUDIO
    TITLE "0:"
    INDEX 01 01:01:58
  TRACK 63 AUDIO
    TITLE "4:cjc030_05712"
    INDEX 01 01:01:66
  TRACK 64 AUDIO
    TITLE "0:"
    INDEX 01 01:02:71
  TRACK 65 AUDIO
    TITLE "5:cjc030_05713"
    INDEX 01 01:03:06
  TRACK 66 AUDIO
    TITLE "0:"
    INDEX 01 01:04:27
  TRACK 67 AUDIO
    TITLE "6:cjc030_05714"
    INDEX 01 01:04:41
  TRACK 68 AUDIO
    TITLE "0:"
    INDEX 01 01:06:47
  TRACK 69 AUDIO
    TITLE "3:cjc030_05715"
    INDEX 01 01:07:21
  TRACK 70 AUDIO
    TITLE "0:"
    INDEX 01 01:08:38
  TRACK 71 AUDIO
    TITLE "4:cjc030_05716"
    INDEX 01 01:08:48
  TRACK 72 AUDIO
    TITLE "0:"
    INDEX 01 01:09:38
  TRACK 73 AUDIO
    TITLE "5:cjc030_05717"
    INDEX 01 01:09:46
  TRACK 74 AUDIO
    TITLE "0:"
    INDEX 01 01:10:63
  TRACK 75 AUDIO
    TITLE "6:cjc030_05718"
    INDEX 01 01:11:02
  TRACK 76 AUDIO
    TITLE "0:"
    INDEX 01 01:12:46
  TRACK 77 AUDIO
    TITLE "3:cjc030_05719"
    INDEX 01 01:13:18
  TRACK 78 AUDIO
    TITLE "0:"
    INDEX 01 01:14:27
  TRACK 79 AUDIO
    TITLE "4:cjc030_05720"
    INDEX 01 01:14:37
  TRACK 80 AUDIO
    TITLE "0:"
    INDEX 01 01:18:09
  TRACK 81 AUDIO
    TITLE "5:cjc030_05721"
    INDEX 01 01:18:19
  TRACK 82 AUDIO
    TITLE "0:"
    INDEX 01 01:19:28
  TRACK 83 AUDIO
    TITLE "6:cjc030_05722"
    INDEX 01 01:19:40
  TRACK 84 AUDIO
    TITLE "0:"
    INDEX 01 01:25:27
  TRACK 85 AUDIO
    TITLE "3:cjc030_05723"
    INDEX 01 01:26:03
  TRACK 86 AUDIO
    TITLE "0:"
    INDEX 01 01:27:12
  TRACK 87 AUDIO
    TITLE "4:cjc030_05724"
    INDEX 01 01:27:18
  TRACK 88 AUDIO
    TITLE "0:"
    INDEX 01 01:29:33
  TRACK 89 AUDIO
    TITLE "5:cjc030_05725"
    INDEX 01 01:29:43
  TRACK 90 AUDIO
    TITLE "0:"
    INDEX 01 01:30:48
